# xmcd
#
# Track frame offsets:
#	150
#	21290
#	35563
#	58200
#	80753
#	102233
#	124283
#	146906
#	165525
#	188106
#
# Disc length: 2806 seconds
#
# Revision: 1
# Processed by: cddbd v1.5.2PL0 Copyright (c) Steve Scherf et al.
# Submitted via: audiograbber 1.83.01
#
DISCID=910af40a
DTITLE=Various Artist - Soul Classics of the 1980's
DYEAR=1900
DGENRE=
TTITLE0=01 - Celebration - Kools and the Gang
TTITLE1=02 - You Dropped The Bomb On Me - The Gap Band
TTITLE2=03 - Don't Waste Your Time - Yarborough and Peoples
TTITLE3=04 - Cupid - The Spinners
TTITLE4=05 - Jump! - The Pointer Sisters
TTITLE5=06 - Back and Forth - Cameo
TTITLE6=07 - Stomp - The Brothers Johnson
TTITLE7=08 - Flashdance - Irene Cara
TTITLE8=09 - I'll Always Love You - Taylor Dayne
TTITLE9=10 - My First Love - Atlantic Starr
EXTD=
EXTT0=
EXTT1=
EXTT2=
EXTT3=
EXTT4=
EXTT5=
EXTT6=
EXTT7=
EXTT8=
EXTT9=
PLAYORDER=
